Simulation
nRows=44
nColumns=15
endheader
time  TH_x TH_y TH_z SC_y  SC_z  SC_x  AC_y  AC_z  AC_x  GH_y  GH_z  GH_yy  EL_x  PS_y
5.745  0.000000  0.000000  0.000000  -56.116088195404636  15.47815314020332  29.318395428536103  55.018464704698125  13.602193402517205  17.773860485649397  24.69085706423795  41.25069626757667  -36.200878953979135  18.564754550797556  120.000000
5.80245  0.000000  0.000000  0.000000  -54.932125431951704  15.183369050870601  26.63296349523826  54.8403788727553  13.385560664674804  16.51001474047586  25.95349433158748  40.435836669804075  -37.506312332494595  18.85883937123203  120.000000
5.8599  0.000000  0.000000  0.000000  -53.56253758001152  14.694673437975734  23.209553113856174  54.61793596282372  13.080981236623286  15.183957199350564  27.370760400172756  39.45308742430775  -38.62700906341445  19.25503118169329  120.000000
5.91735  0.000000  0.000000  0.000000  -52.10676263897979  13.915045288615115  19.190327921043608  54.32479471153531  12.657740446381442  13.886620546938602  28.803188577022784  38.33513365056628  -39.33966336241865  19.663137795834803  120.000000
5.9748  0.000000  0.000000  0.000000  -50.67022081892482  12.781873034297226  14.768277975497377  53.921003718839565  12.121739971502231  12.698620037738683  30.09774828768527  37.092812272003755  -39.44230302116032  19.972327551064282  120.000000
6.03225  0.000000  0.000000  0.000000  -49.34521727302858  11.29817945921219  10.16353316744379  53.37270636418997  11.513521438572182  11.678164493674437  31.11647677026847  35.72837593927718  -38.80987617135914  20.086794575998642  120.000000
6.089700000000001  0.000000  0.000000  0.000000  -48.185166701008676  9.536419723626587  5.592095783370655  52.66939711596622  10.897699592190632  10.855244523652948  31.766361827175654  34.25065921323063  -37.43323950154202  19.955392416991547  120.000000
6.14715  0.000000  0.000000  0.000000  -47.1875454594632  7.61256470197705  1.2389749332158049  51.83244768593487  10.348084981367915  10.233597212077111  32.022281528064916  32.680339896727276  -35.43087020298116  19.579396811595807  120.000000
6.2046  0.000000  0.000000  0.000000  -46.29751915914857  5.64932641410784  -2.7541350839167444  50.9154250698013  9.936495624055505  9.795506779156943  31.936104429927326  31.03980428380921  -33.02915939527869  18.998274278005955  120.000000
6.26205  0.000000  0.000000  0.000000  -45.42569427484691  3.744890723292754  -6.287434403982137  49.992408182358446  9.723608790024315  9.513530602725721  31.625408314155337  29.340877337699563  -30.51356040580484  18.270918134553607  120.000000
6.3195  0.000000  0.000000  0.000000  -44.48376547265159  1.9665800042746044  -9.297512338198933  49.13985774527703  9.748559974221347  9.361944940415599  31.24103332652463  27.589248707297774  -28.15741132428083  17.46973549840109  120.000000
6.37695  0.000000  0.000000  0.000000  -43.42069494564361  0.3647943225000806  -11.763302699351398  48.421675650832015  10.015510968482351  9.314377939809129  30.915859005565892  25.807608011370544  -26.14687912359705  16.677025529339662  120.000000
6.4344  0.000000  0.000000  0.000000  -42.24931963199954  -1.029832671701424  -13.71003259560125  47.87440048574788  10.480725706434386  9.345823856094123  30.732982605335234  24.050723213458603  -24.54626437316835  15.978855253690774  120.000000
6.49185  0.000000  0.000000  0.000000  -41.037225302763936  -2.210908597616405  -15.201800815973368  47.507445057514026  11.061832476535868  9.435658967012484  30.721024094209803  22.397141461397197  -23.313044510907584  15.453088491665685  120.000000
6.549300000000001  0.000000  0.000000  0.000000  -39.86076350124365  -3.185351155265647  -16.325724586470518  47.316987300779836  11.671046186710688  9.555894229498737  30.856844169655435  20.919102218478287  -22.33785056844338  15.150716434388489  120.000000
6.60675  0.000000  0.000000  0.000000  -38.78762755895964  -3.978448114254211  -17.167360737526263  47.27301438261626  12.238570758834713  9.681493794167984  31.06667970936039  19.646772805226323  -21.479053713223866  15.084880011893746  120.000000
6.6642  0.000000  0.000000  0.000000  -37.866920588969975  -4.624827202490739  -17.796629826793275  47.32028370093225  12.721806469387477  9.800667640054812  31.254620106063097  18.566562956008536  -20.60772506324181  15.23554979544008  120.000000
6.72165  0.000000  0.000000  0.000000  -37.125405501977234  -5.1444230883926485  -18.267434274754752  47.406468717538864  13.106091068114143  9.907015763721764  31.349423910804102  17.64792831386104  -19.65045992886117  15.563268715018692  120.000000
6.7791  0.000000  0.000000  0.000000  -36.573082325309166  -5.5435380004107495  -18.62012792210077  47.491833028635284  13.394662661999401  9.998493372938988  31.316783871468854  16.85840489865762  -18.587802828087835  16.012390561529447  120.000000
6.83655  0.000000  0.000000  0.000000  -36.19901951163184  -5.827883463380255  -18.884076668527403  47.55306262695044  13.599309821340128  10.07539340375875  31.150896043847222  16.164915763264364  -17.431566108275813  16.50823941121274  120.000000
6.894  0.000000  0.000000  0.000000  -35.9707936426823  -6.009852333295874  -19.079681454475033  47.58361492195563  13.735516444084018  10.137863990095783  30.86347905919848  15.534833484537144  -16.207398205641724  16.963609618890782  120.000000
6.95145  0.000000  0.000000  0.000000  -35.84355484180021  -6.10820235019208  -19.219900178465608  47.58708757137949  13.820076716867364  10.186529417350037  30.47323660233548  14.940160461886384  -14.946209044264426  17.297690493193045  120.000000
7.008900000000001  0.000000  0.000000  0.000000  -35.77594297245556  -6.145534265368983  -19.312846091412446  47.570077672366374  13.86976534051109  10.22188368910151  30.001532493032464  14.364152384859691  -13.685531469744273  17.463606541296162  120.000000
7.06635  0.000000  0.000000  0.000000  -35.74094538871189  -6.142991420357092  -19.36507204029356  47.53891844693609  13.90014319868166  10.24219903708409  29.474882727796146  13.804449972511096  -12.47545748901082  17.470103505000722  120.000000
7.1238  0.000000  0.000000  0.000000  -35.72988249355056  -6.1174350842859235  -19.38308835710216  47.497482704610825  13.925057095029256  10.244062038799816  28.927632580403145  13.271111462518805  -11.378874018735665  17.37896790572987  120.000000
7.18125  0.000000  0.000000  0.000000  -35.74651776632976  -6.081743055778446  -19.372751882278617  47.44761660326922  13.955288437158508  10.223273942627417  28.397950947349415  12.780639636322372  -10.45967103345978  17.276393338215843  120.000000
7.2387  0.000000  0.000000  0.000000  -35.79679747267226  -6.0445880960933955  -19.337798189294457  47.39089309771121  13.997139357546247  10.176406402543481  27.918940395692733  12.348491902362492  -9.763739432716115  17.237322702311708  120.000000
7.29615  0.000000  0.000000  0.000000  -35.880110455302784  -6.011285547769933  -19.279934462920494  47.32966323178748  14.052538994471153  10.103269952102568  27.503930772863534  11.983500825534856  -9.297011168587767  17.29848006725631  120.000000
7.3536  0.000000  0.000000  0.000000  -35.985962131031975  -5.984883426792781  -19.20040215074031  47.26784121401368  14.12020480660551  10.006897674789597  27.13804303453066  11.6859520740176  -9.017079584218163  17.453206923732832  120.000000
7.41105  0.000000  0.000000  0.000000  -36.097404322203694  -5.966692565714602  -19.101680431179275  47.20973162220176  14.196924992574724  9.892579366239628  26.780903878527745  11.448844539733559  -8.84373364712256  17.667671014285617  120.000000
7.468500000000001  0.000000  0.000000  0.000000  -36.197817761323186  -5.956785249094698  -18.988306757728164  47.15801943228796  14.278705019238327  9.766656677080864  26.382491112659345  11.26096827562063  -8.686002560513954  17.903471426758905  120.000000
7.52595  0.000000  0.000000  0.000000  -36.27678226592884  -5.954537364229497  -18.866931819943975  47.11285556768956  14.361812353680333  9.635317549942636  25.90351602602886  11.110380593981038  -8.472179226985599  18.134176506127645  120.000000
7.5834  0.000000  0.000000  0.000000  -36.332403290015456  -5.958901293660478  -18.745605379326722  47.07161986197733  14.443731844241823  9.504079823345757  25.32832170368572  10.986429374739505  -8.167124226573241  18.35094078917168  120.000000
7.64085  0.000000  0.000000  0.000000  -36.36950935547663  -5.968822980904099  -18.632441311067094  47.03020135430707  14.524026920016773  9.377353576326101  24.664490663628793  10.880397660251582  -7.770259108500681  18.55753165435326  120.000000
7.6983  0.000000  0.000000  0.000000  -36.396090759345235  -5.983405615891517  -18.534198599015724  46.984530732658335  14.60473515828631  9.257992496136517  23.934306162000695  10.785208397254301  -7.302418074905514  18.761575634641083  120.000000
7.75575  0.000000  0.000000  0.000000  -36.420654837837915  -6.001908274109117  -18.455370287926346  46.93165254798616  14.6899958106279  9.147242895620515  23.164896687105387  10.695162946183743  -6.791430718327237  18.96768578931731  120.000000
7.8132  0.000000  0.000000  0.000000  -36.45106208012692  -6.023836337111602  -18.39800535366976  46.87031654064041  14.785021482770272  9.045068172823147  22.38504601600833  10.605819859968737  -6.2657741544841565  19.17488744733626  120.000000
7.87065  0.000000  0.000000  0.000000  -36.49418259991265  -6.049074731661055  -18.362064556886434  46.80173120342354  14.894565799842354  8.950711187448032  21.629452580954624  10.513964866842354  -5.756776538996922  19.378545455221566  120.000000
7.928100000000001  0.000000  0.000000  0.000000  -36.55586633423867  -6.078199595174565  -18.345990962373193  46.72942966899461  15.021473808187487  8.863742702174077  20.945661568099638  10.417046229905681  -5.304190506149246  19.575207688065117  120.000000
7.98555  0.000000  0.000000  0.000000  -36.64080494432027  -6.112339347589945  -18.347302455821826  46.65803635279325  15.165850016895869  8.784992893584413  20.392931834828065  10.3123793270122  -4.953986663307288  19.767700382533885  120.000000
8.043  0.000000  0.000000  0.000000  -36.75289352079097  -6.151367129438738  -18.363343510189644  46.59081489349589  15.324974592388289  8.716175166056688  20.029774781315098  10.196593983175104  -4.7462599098818945  19.96768303192198  120.000000
8.10045  0.000000  0.000000  0.000000  -36.895958398481014  -6.191273947627642  -18.3915945854638  46.523921477406546  15.493986947735477  8.659644090226726  19.882728327235238  10.065884363105297  -4.687453430188037  20.191166084521072  120.000000
8.1579  0.000000  0.000000  0.000000  -37.076928458936074  -6.21965652881422  -18.43028840352613  46.44063720462489  15.667873795595586  8.617015151337073  19.914579848546932  9.918251785779752  -4.725526362184829  20.448200491370294  120.000000
8.21535  0.000000  0.000000  0.000000  -37.30437623775067  -6.214162253146675  -18.480816824246645  46.3124132289748  15.843131298402048  8.585741108551606  20.017375923616843  9.756242186255525  -4.751369924033086  20.7289149326225  120.000000
